<?xml version="1.0" encoding="UTF-8" standalone="no"?>
<!-- Creator: CorelDRAW 2019 (64-Bit) -->

<svg
   xml:space="preserve"
   width="1000mm"
   height="1000mm"
   version="1.1"
   style="shape-rendering:geometricPrecision; text-rendering:geometricPrecision; image-rendering:optimizeQuality; fill-rule:evenodd; clip-rule:evenodd"
   viewBox="0 0 100000 100000"
   id="svg1"
   sodipodi:docname="AdobeStock_484858676.svg"
   inkscape:export-filename="favicon.png"
   inkscape:export-xdpi="1"
   inkscape:export-ydpi="1"
   inkscape:version="1.4.2 (ebf0e94, 2025-05-08)"
   xmlns:inkscape="http://www.inkscape.org/namespaces/inkscape"
   xmlns:sodipodi="http://sodipodi.sourceforge.net/DTD/sodipodi-0.dtd"
   xmlns="http://www.w3.org/2000/svg"
   xmlns:svg="http://www.w3.org/2000/svg"><sodipodi:namedview
   id="namedview1"
   pagecolor="#ffffff"
   bordercolor="#000000"
   borderopacity="0.25"
   inkscape:showpageshadow="2"
   inkscape:pageopacity="0.0"
   inkscape:pagecheckerboard="0"
   inkscape:deskcolor="#d1d1d1"
   inkscape:document-units="mm"
   inkscape:zoom="0.11010804"
   inkscape:cx="2838.1217"
   inkscape:cy="1348.6754"
   inkscape:window-width="1440"
   inkscape:window-height="831"
   inkscape:window-x="0"
   inkscape:window-y="0"
   inkscape:window-maximized="1"
   inkscape:current-layer="Layer_x0020_1" />
 <defs
   id="defs1"><linearGradient
   id="swatch13"
   inkscape:swatch="solid"><stop
     style="stop-color:#000000;stop-opacity:1;"
     offset="0"
     id="stop14" /></linearGradient><linearGradient
   id="swatch7"
   inkscape:swatch="solid"><stop
     style="stop-color:#88aa00;stop-opacity:1;"
     offset="0"
     id="stop7" /></linearGradient>
  <style
   type="text/css"
   id="style1">
   <![CDATA[
    .fil0 {fill:black;fill-rule:nonzero}
   ]]>
  </style>
 </defs>
 <g
   id="Layer_x0020_1"
   inkscape:label="Layer 1"
   style="fill:#bed04a;fill-opacity:1">
  <metadata
   id="CorelCorpID_0Corel-Layer" />
  <path
   class="fil0"
   d="M93559.06 6157.72c900.09,-1034 1478.7,-1964.23 1806.73,-2841.33 359.5,-961.28 417.09,-1865.93 269.78,-2782.02 -38.23,-240.67 126.07,-466.76 366.99,-504.97 240.91,-38.2 467.22,125.95 505.46,366.63 170.59,1060.95 103.23,2110.42 -314.79,3228.19 -55.18,147.54 -116.53,296.16 -184.23,446 854.46,-508.95 1686.77,-773.97 2531.03,-858.59 166.5,-16.69 336.43,-26.22 509.78,-29.07 175.76,-2.9 345.54,0.83 510.08,10.68 243.79,14.33 429.79,223.38 415.45,466.93 -14.34,243.55 -223.6,429.37 -467.39,415.05 -155.17,-9.3 -303.38,-13.02 -444.3,-10.69 -143.35,2.36 -288.91,10.75 -437.08,25.6 -747.16,74.89 -1487.75,318.48 -2255.92,792.59 -688.88,425.16 -1401.84,1036.13 -2162.58,1875.87 302.84,355.35 544.25,771.7 709.73,1236.04 502.38,1409.68 300.67,3263.08 -1031.56,5164.54 -453.04,646.63 -891.03,1314.7 -1235.65,1968.21 -327.8,621.63 -565.03,1219.18 -635.97,1751.27 -264.81,1986.32 -1043.35,3598.91 -2140.01,4865.45 -1241.31,1433.59 -2884.89,2416.63 -4647.45,2991.78 -1323.31,431.81 -2323.84,1720.34 -3174.53,2815.9 -286.74,369.26 -557.95,718.54 -814.07,1006.59 -3365.5,3785.03 -7170.89,5848.16 -11194.95,6039.34 -3918.87,186.19 -8014.82,-1407.77 -12080.45,-4921.05 -3040.16,-2627.13 -5874.6,-2948.52 -7970.27,-2042.09 -844.2,365.14 -1572.51,929.71 -2148.1,1622.09 -576.72,693.76 -999.41,1516.84 -1231.25,2397.38 -561.25,2131.59 12.1,4595.91 2248.98,6363.11 2865.05,2263.49 7193.43,3842.14 11875.73,5549.88 10456.54,3813.71 22640.92,8257.63 25200.42,22502.05 586.95,3266.65 225.69,6397.71 -863.12,9254.77 -1163.48,3052.98 -3158.53,5792.18 -5714.35,8047.41 -1824.88,1610.25 -3981.16,2877.36 -6322.78,3751.37 -3847.96,1436.27 -8199.08,1812.53 -12403.21,906.48 -4210.59,-907.45 -8275.23,-3098.17 -11543.16,-6794.49 -1945.46,-2200.5 -3606.67,-4933.33 -4845.14,-8244.93 -2350.65,-6285.52 -6678.98,-12167.84 -11830.54,-15762.51 -4513.73,-3149.6 -9656.13,-4530.65 -14627.69,-2847.32 -4056.46,1373.48 -5934.39,3722.43 -6289.25,6004.15 -155.16,997.68 -19.17,1986.44 352.33,2874.29 371.63,888.16 978.5,1673.23 1764.91,2263.31 1717.98,1289.12 4304.77,1650.89 7197.98,144.61 1316.27,-685.27 2662.89,-1177.99 4008.04,-1483.71 3012.92,-684.77 5999.3,-420.12 8606.71,729.26 2612.84,1151.77 4840.57,3187.48 6329.6,6042.03 623.36,1195.01 1117.27,2537.26 1455.39,4022.13 677.85,2976.65 556.13,6208.79 -718.78,8981.11 -1098.16,2388.03 -3042.35,4427.71 -6053.7,5665.26 -3105.69,1276.33 -6021.78,1158.66 -8575.76,402.49 -2527.77,-748.41 -4690.28,-2121.6 -6323.32,-3378.56 -1762.67,-1356.74 -3578.9,-2054.44 -5459.46,-1778.78 -1910.14,279.98 -3925.99,1558.8 -6071.53,4158.96 -770.47,933.7 -1550.49,2115.78 -2350.51,3512.49 -807.42,1409.67 -1627.64,3025.13 -2473.31,4815.5 -628.42,1330.41 -1194.95,2119.55 -1638.7,2440.29 -316.46,228.72 -623.49,283.2 -909.39,177.07 -278.8,-103.5 -473.79,-340.27 -576.9,-698.22 -153.25,-531.85 -110.96,-1487.46 184.07,-2762.07 287.09,-1240.3 783.99,-2681.43 1360.46,-4126.63 749.44,-1878.84 1634.56,-3765.55 2363.77,-5218.96 553.52,-1103.22 1175.82,-2075.53 1851.58,-2921.34 1904.46,-2383.73 4244.99,-3798.34 6682.43,-4333.44 2439.82,-535.63 4971.96,-185.78 7257.79,958.86 759.6,380.37 1488.21,845.41 2173.28,1391.67 1510.91,1204.8 3194.41,2066.14 4949.89,2352.51 1542.23,251.57 3149.81,58.92 4755.72,-737.27 2525.83,-1252.3 3495.74,-3454.22 3325.18,-5623.25 -73.29,-931.94 -353.76,-1858.86 -809.4,-2704.78 -456.46,-847.44 -1088.52,-1613.29 -1864.07,-2221.46 -1984.22,-1555.96 -4924.25,-2068.77 -8288.1,-255.08 -2120.26,1143.18 -4175.14,1852.67 -6148.54,2156.89 -2042.67,314.89 -3998.96,196.39 -5851.26,-324.26 -3181.21,-894.16 -5604.63,-2614.61 -7281.7,-4809.27 -1790.86,-2343.6 -2724.34,-5224.26 -2815.76,-8213.17 -90.94,-2973.45 653.59,-6055.91 2218.39,-8820.7 1782.95,-3150.24 4630.44,-5888.48 8519.5,-7582.48 7950.51,-3463.08 16002.28,-2344.22 23064.66,1328.68 8391.95,4364.36 15386.95,12351.18 19126.81,20518.43 579.72,1266.02 1375.35,2527.55 2327.32,3669.37 1421.15,1704.57 3187.46,3137.98 5097.5,3912.06 1865.03,755.84 3869.77,876.43 5817.23,-13.61 633.73,-289.62 1263.65,-685.9 1883.35,-1201.57 592.94,-493.4 1056.45,-1015.11 1405.95,-1557 955.15,-1480.92 1048.75,-3131.56 605.31,-4773.97 -459.34,-1701.27 -1487.09,-3396.65 -2740.88,-4900.47 -1367.99,-1640.81 -3001.06,-3048.36 -4463.2,-3989.57 -4416.04,-2842.73 -8258.26,-4810.39 -12436.57,-6950.16 -2331.24,-1193.85 -4765.61,-2440.55 -7394.67,-3882.62 -7163.87,-3929.49 -9736.85,-9928.82 -9214.21,-15543.72 261.6,-2810.58 1302.81,-5521.69 2934.91,-7825.21 1633.51,-2305.51 3857.97,-4204.04 6484.47,-5387.23 5385.69,-2426.16 12446.43,-1861.83 19543.8,4344.52 1944.92,1700.74 3703.01,1970.16 5213.01,1539.31 1550.93,-442.52 2882.62,-1616.61 3899.26,-2759.97 373.11,-419.63 762.75,-811.04 1138.64,-1188.64 1128.74,-1133.88 2122.83,-2132.52 2383.24,-3820.29l0 -2.07c267.64,-1734.67 1029.35,-3493.34 2251.32,-4894.67 1089.29,-1249.18 2542.97,-2215.62 4338.01,-2633.18 509.31,-118.47 1075.96,-374.64 1647.23,-730 599.14,-372.69 1196.05,-849.6 1733.61,-1388.84 1583.19,-1588.09 3274.11,-2092.17 4680.21,-1854.13 588.41,99.6 1126.07,328.59 1586.49,662.96zm-11650.82 62088.25c-34.41,-191.78 93.32,-375.14 285.28,-409.52 191.96,-34.37 375.5,93.23 409.91,285.01 203.24,1120.19 200.95,2388.75 -19.67,3609.16 -207.34,1146.88 -607.38,2254.85 -1210.82,3163.64 -107.83,162.74 -327.33,207.34 -490.23,99.62 -162.9,-107.73 -207.54,-327.01 -99.71,-489.75 549.38,-827.37 914.8,-1842.81 1105.57,-2898.02 205.84,-1138.66 208.45,-2319.63 19.67,-3360.14zm-1532.92 -55447.79c-1085.85,1245.23 -1763.29,2811.75 -2002.05,4359.26l-0.32 -0.05c-313.59,2028.37 -1422.71,3142.57 -2682.03,4407.64 -354.56,356.17 -722.08,725.36 -1097.1,1147.13 -1122.77,1262.73 -2612.53,2564.81 -4401.96,3075.4 -1830.33,522.25 -3931.55,221.76 -6201.76,-1763.44 -6729.74,-5884.87 -13371.13,-6444.11 -18409.64,-4174.35 -2454.16,1105.56 -4531.77,2878.26 -6056.55,5030.3 -1526.18,2154.04 -2499.61,4686.91 -2743.82,7310.54 -486.42,5225.95 1935.94,10824.85 8669.98,14518.57 2696.2,1478.91 5081.43,2700.42 7365.59,3870.17 4214.07,2158.08 8089.17,4142.58 12527.96,6999.95 1540.61,991.73 3261.77,2475.36 4704.17,4205.41 1345.04,1613.26 2451.14,3445.2 2952.76,5303.05 517.5,1916.72 399.2,3857.1 -738.24,5620.67 -404.55,627.23 -939.35,1229.7 -1621.99,1797.72 -694.62,578.01 -1403.88,1023.66 -2120.16,1351.01 -2243.84,1025.48 -4535.6,893.87 -6656.44,34.34 -2075.86,-841.28 -3984.97,-2386.49 -5512.94,-4219.18 -1012.65,-1214.61 -1859.44,-2557.5 -2476.9,-3905.94 -3649.32,-7969.55 -10471.36,-15761.16 -18653.19,-20016.24 -6797.17,-3534.98 -14532.81,-4617.8 -22150.67,-1299.62 -3663.84,1595.9 -6344.43,4172.03 -8020.95,7134.23 -1467.97,2593.7 -2166.49,5483.17 -2081.3,8268.69 84.71,2770.07 946.6,5435.57 2599.72,7598.9 1542.77,2018.93 3780.26,3603.89 6725.01,4431.59 1703.93,478.94 3510.05,586.95 5402.58,295.2 1858.42,-286.49 3799.29,-957.72 5807.86,-2040.69 3799.85,-2048.76 7158.61,-1439.93 9447.19,354.69 891.18,698.84 1617.62,1579.18 2142.43,2553.51 525.64,975.87 849.3,2046.43 934.04,3123.97 202.36,2573.39 -939.27,5181.29 -3915.12,6656.7 -1818.01,901.36 -3642.27,1118.75 -5395.51,832.75 -1948.23,-317.8 -3796.35,-1257.6 -5440.13,-2568.34 -634.03,-505.57 -1299.85,-931.71 -1986.31,-1275.45 -2066.83,-1034.98 -4355.48,-1351.5 -6559.85,-867.56 -2206.73,484.45 -4333.88,1775.37 -6075.88,3955.75 -636.14,796.23 -1219.46,1706.57 -1735.24,2734.57 -718.16,1431.38 -1589.48,3288.54 -2326.39,5135.95 -556.09,1394.15 -1034.95,2782.23 -1310.6,3973.06 -222.03,959.27 -288.85,1667.26 -228.98,2079.56 300.98,-292.82 699.24,-916.81 1175.74,-1925.6 861.74,-1824.37 1694.77,-3465.71 2510.7,-4890.21 823.35,-1437.47 1636.86,-2667.03 2454.37,-3657.75 2329.49,-2823.08 4570.65,-4219.22 6736.26,-4536.65 2195.21,-321.79 4273.61,460.55 6261.27,1990.45 1551.56,1194.26 3599.62,2496.98 5974.34,3200.08 2348.5,695.33 5026.91,804.8 7873.67,-365.12 2738.22,-1125.31 4501.47,-2969.96 5492.83,-5125.71 1171.69,-2547.91 1278.59,-5540.27 648.15,-8308.74 -315.59,-1385.92 -778.53,-2642.46 -1363.99,-3764.8 -1372.54,-2631.25 -3418.68,-4504.49 -5814.44,-5560.57 -2401.19,-1058.47 -5158.28,-1300.62 -7946.16,-667 -1249.71,284.03 -2509.5,746.34 -3750.45,1392.4 -3305.66,1721.01 -6304.99,1274.81 -8323.85,-240.07 -940.95,-706.04 -1666.37,-1643.7 -2109.72,-2703.27 -443.5,-1059.92 -605.26,-2244.06 -418.82,-3442.89 410.12,-2637.07 2503.35,-5325.69 6995.52,-6846.7 5325.51,-1803.18 10796.32,-350.12 15574.92,2984.29 5325.23,3715.86 9794.74,9783.77 12216.91,16260.55 1190.77,3184.08 2783.36,5806.39 4645.73,7912.91 3106.59,3513.84 6969.24,5596.12 10969.82,6458.3 4007.02,863.57 8151.05,506.11 11813.28,-860.83 2221.14,-829.05 4264.14,-2028.91 5990.42,-3552.15 2427.76,-2142.23 4321.39,-4740.33 5423.53,-7632.36 1023.6,-2685.96 1363.81,-5626.32 813.27,-8690.3 -2451.66,-13644.26 -14327.4,-17975.62 -24519.07,-21692.73 -4764.19,-1737.6 -9168.26,-3343.86 -12170.7,-5715.89 -2612.7,-2064.11 -3278.84,-4955.97 -2618.73,-7462.98 270.26,-1026.49 765.69,-1989.22 1443.13,-2804.12 678.55,-816.26 1540.52,-1483.28 2542.77,-1916.77 2438.22,-1054.59 5682.55,-726.8 9083.67,2212.25 3849.1,3326.17 7691.57,4836.91 11336.81,4663.72 3727.01,-177.08 7279.77,-2119.7 10451.27,-5686.55 251.7,-283.07 502.85,-606.52 768.39,-948.48 943.57,-1215.17 2053.35,-2644.38 3685.52,-3176.98 1590.76,-519.1 3067.9,-1399.1 4173.84,-2676.36 967.89,-1117.81 1655.62,-2545.57 1890.75,-4309.28 89.7,-672.87 367.75,-1386.85 748.14,-2108.21 363.59,-689.47 826.81,-1395.93 1306.28,-2080.28 1112.06,-1587.21 1296.35,-3089.7 898.61,-4205.78 -172.74,-484.7 -456.32,-895.86 -820.3,-1205.95 -361.29,-307.79 -804.08,-517.15 -1298.19,-600.79 -1094.01,-185.2 -2443.17,240.65 -3753.75,1555.3 -597.61,599.48 -1260.31,1129.11 -1924.72,1542.4 -667.49,415.21 -1343.47,717.75 -1967.13,862.83 -1559.71,362.8 -2825.86,1206.03 -3777.16,2296.97zm-79365.64 86181.61c25.81,9.58 14.47,4.62 -7.05,-4.88 -8.87,-1.78 -9.51,-1.26 7.05,4.88z"
   id="path1"
   style="fill:#bed04a;fill-opacity:1" />
 <path
   style="fill-opacity:1;stroke-width:6.44031499;stroke-dasharray:none;fill-rule:nonzero;stroke:#000000;stroke-opacity:1"
   d="m 41.995372,3715.1404 c -0.02942,-7.0826 5.742431,-37.0542 12.826326,-66.6035 29.800818,-124.3095 134.902702,-353.7987 198.938702,-434.3812 88.41256,-111.2579 204.25173,-166.2076 330.99713,-157.0125 82.51615,5.9864 134.57007,26.8919 220.08224,88.388 98.77361,71.033 167.3683,96.3634 260.95223,96.3634 229.2715,0 363.2112,-199.1981 266.875,-396.9025 -63.3709,-130.0519 -207.1113,-196.0971 -347.80003,-159.8056 -21.1065,5.4446 -75.28123,27.333 -120.38832,48.6408 -46.56693,21.9975 -108.84144,45.5473 -144.08711,54.4881 -227.84919,57.7987 -456.18244,-43.3719 -552.9928,-245.0217 -38.22257,-79.6152 -50.04105,-131.9608 -50.1534,-222.1358 -0.20944,-168.095 65.65206,-317.1847 193.71445,-438.5082 91.62011,-86.7989 202.9271,-143.3009 350.77958,-178.0638 64.51089,-15.1677 85.06984,-16.9862 191.39079,-16.9286 98.15471,0.053 130.17324,2.5098 181.94854,13.9601 310.5924,68.6883 604.9215,273.7417 828.7665,577.3858 58.3912,79.2072 104.6333,155.9244 163.4683,271.1992 56.8289,111.3445 111.2539,184.1448 180.5344,241.4878 139.441,115.4142 299.0084,135.473 426.8966,53.6638 193.6472,-123.8745 181.0716,-345.8259 -31.8415,-561.9817 -100.432,-101.9616 -217.018,-174.1008 -610.1197,-377.5205 -310.2574,-160.5499 -350.7498,-184.6788 -427.2396,-254.5861 -74.6357,-68.2128 -133.2964,-166.7195 -158.6184,-266.3616 -15.5608,-61.2318 -17.2199,-166.0681 -3.6419,-230.1298 39.6745,-187.18627 188.664,-357.38117 365.8878,-417.96384 206.9626,-70.74872 412.7689,-17.02526 638.7316,166.73389 73.4835,59.75884 121.4863,80.81751 183.3093,80.41728 59.9411,-0.38807 104.2288,-16.31185 158.0675,-56.83373 49.2948,-37.10196 173.3904,-170.22451 191.174,-205.08053 7.4828,-14.6662 20.2446,-53.47756 28.3596,-86.24748 8.115,-32.76991 22.8975,-74.62987 32.8501,-93.02214 37.5079,-69.31455 109.4822,-124.65814 190.8542,-146.75466 36.7096,-9.96848 89.511,-43.29468 141.5829,-89.36158 50.5041,-44.67999 71.4164,-54.71694 114.9505,-55.17072 62.8275,-0.65489 102.0031,41.08432 101.7608,108.41992 -0.1613,44.79691 -11.4082,73.80729 -51.5055,132.85316 -36.2523,53.38386 -55.4233,97.06209 -67.2236,153.15866 -25.0068,118.87844 -89.9378,192.49848 -216.0614,244.9747 -61.8565,25.73672 -83.5132,43.99518 -157.2739,132.59597 -155.414,186.6818 -338.7384,268.8024 -518.8994,232.4419 -107.463,-21.6883 -186.5677,-62.4582 -312.8423,-161.2361 -82.175,-64.2811 -132.7087,-90.6765 -199.7885,-104.35603 -149.6389,-30.51572 -286.4495,68.12173 -312.4952,225.30203 -14.125,85.2424 15.0448,168.2888 81.864,233.0666 75.6075,73.2974 185.5562,127.8266 473.3005,234.7339 226.9889,84.3344 294.6668,112.2041 397.0039,163.4852 239.3919,119.9595 396.2529,271.1075 478.7496,461.3134 87.3024,201.2858 90.6786,393.4268 9.9088,563.9332 -38.7234,81.746 -73.586,131.2702 -141.3182,200.75 -147.0875,150.8825 -330.7748,226.9158 -548.2014,226.9158 -128.287,0 -231.6363,-23.5782 -342.7128,-78.1867 -187.0918,-91.9798 -314.0695,-242.6863 -416.8662,-494.7671 -159.8104,-391.8914 -452.6008,-673.2133 -761.16907,-731.3545 -74.9781,-14.1275 -191.25414,-9.6383 -259.50777,10.0194 -109.9827,31.6759 -218.09288,104.8475 -259.62864,175.7229 -75.10459,128.1562 -28.12002,288.8646 103.37857,353.6012 34.08672,16.7808 51.37538,20.9631 96.43321,23.328 68.74723,3.6083 110.27677,-5.3997 188.54145,-40.8956 108.67957,-49.2901 145.20661,-57.7568 247.89065,-57.4586 81.4829,0.2367 95.0901,1.9783 141.6518,18.1311 130.6357,45.3188 228.3873,140.6643 281.8267,274.89 32.6201,81.9333 39.532,119.441 39.6887,215.3759 0.1377,84.2485 -1.1319,93.7388 -19.4181,145.1555 -45.5911,128.1922 -137.3671,212.3802 -273.2282,250.6379 -64.7307,18.2277 -158.0091,18.4583 -227.4166,0.5621 -52.01149,-13.4106 -132.98262,-50.6275 -180.20315,-82.8268 -14.7887,-10.0843 -50.6843,-34.6234 -79.76792,-54.5312 -148.78689,-101.845 -295.955,-80.1899 -433.65806,63.8106 -73.60837,76.9747 -122.55257,152.7604 -208.93933,323.5237 -56.116091,110.9264 -60.853436,118.7451 -60.928968,100.5595 z M 3095.6136,2799.2327 c 21.523,-48.4531 29.1874,-78.7713 33.7746,-133.6034 5.1243,-61.2518 -2.8488,-103.0195 -19.6656,-103.0195 -11.7816,0 -12.7581,4.8845 -13.515,67.6066 -0.8873,73.5341 -8.073,108.7568 -31.9616,156.6679 -19.5578,39.2252 -19.6185,49.371 -0.2954,49.371 12.3264,0 18.3418,-7.0336 31.663,-37.0226 z"
   id="path2"
   transform="scale(26.458333)" /></g>
</svg>
